# xmcd
#
# Track frame offsets:
#	150
#	16275
#	31950
#	44850
#	57825
#	74025
#	88725
#	102150
#	116100
#	129450
#	144300
#	159350
#	175475
#	190550
#	205775
#	221518
#	235618
#	248293
#	261943
#	274543
#
# Disc length: 3849 seconds
#
# Revision: 0
# Processed by: cddbd v1.5.2PL0 Copyright (c) Steve Scherf et al.
# Submitted via: EasyCDDAExtractor 16.0.6.1
#
DISCID=1a0f0714
DTITLE=Γαβαλάς Πάνος - Πορτραίτα minos 15-Π. Γαβαλάς
DYEAR=1995
DGENRE=Λαϊκή
TTITLE0=Γαβαλάς Πάνος-Κούρτη Ρία - Δεν με πονάς, δεν μ' αγαπάς [1963, Π.Γαβαλά
TTITLE0=Α.Κουλούρη-Στυλ.Κορσανίδη]
TTITLE1=Γαβαλάς Πάνος-Φινέτη Μπέμπα-Τσιτσάνης Β. - Όσο με μαλώνεις [1962, Βασ.
TTITLE1=Τσιτσάνη]
TTITLE2=Γαβαλάς Πάνος - Πούνα γυρνάς, πού να γυρνάς [1966, Α. Ρεπάνη-Νίκ. Γκού
TTITLE2=μα]
TTITLE3=Γαβαλάς Πάνος-Κούρτη Ρία - Στην καρδιά μου ανάβει φωτιά [1963, Π. Γαβα
TTITLE3=λά-Βασ. Βασιλειάδη]
TTITLE4=Γαβαλάς Πάνος-Γκίκα Βούλα - Μείνε αγάπη μου κοντά μου [1962, Βασ. Τσιτ
TTITLE4=σάνη]
TTITLE5=Γαβαλάς Πάνος-Κούρτη Ρία - Κάποιο πρωϊνό στον Πειραιά [1963, Μ. Θεοδωρ
TTITLE5=άκη-Χρ. Κολοκοτρώνη]
TTITLE6=Γαβαλάς Πάνος - Κι όμως την πίστευα [1963, Βασ. Τσιτσάνη]
TTITLE7=Γαβαλάς Πάνος-Κούρτη Ρία - Πού θα πας, πού θα πας [1964, Β. Βασιλειάδη
TTITLE7=Πυθαγόρα]
TTITLE8=Γαβαλάς Πάνος-Κούρτη Ρία - Άμα θες να κλάψεις, κλάψε [1962, Απ. Καλδάρ
TTITLE8=α-Γ. Σαμολαδά]
TTITLE9=Γαβαλάς Πάνος-Λίντα Μαίρη - Εσύ δεν είσαι άνθρωπος [1958, Μ. Χιώτη-Χρ.
TTITLE9=Κολοκοτρώνη]
TTITLE10=Γαβαλάς Πάνος-Κούρτη Ρία - Δυό φορές σε πίστεψα [1962, Βασ. Τσιτσάνη]
TTITLE11=Γαβαλάς Πάνος - Μακρυά μου να φύγεις [1962, Π. Γαβαλά-Κ. Βίρβου-Α. Κο
TTITLE11=υλούρη]
TTITLE12=Γαβαλάς Πάνος-Κούρτη Ρία - Φεύγεις και μ' αφήνεις μόνο [1962, Αντ. Δη
TTITLE12=μόγλου]
TTITLE13=Γαβαλάς Πάνος-Κούρτη Ρία - Στην πόρτα σου [1964, Γ. Κατσαρού-Πυθαγόρα
TTITLE13=]
TTITLE14=Γαβαλάς Πάνος-Κούρτη Ρία - Ρίχνω τα ζάρια [1964, Γ. Κατσαρού-Πυθαγόρα
TTITLE14=]
TTITLE15=Γαβαλάς Πάνος-Κούρτη Ρία - Τι μού ζήτησες και δεν στό 'δωσα [1964, Γ.
TTITLE15=Καραμπεσίνη]
TTITLE16=Γαβαλάς Πάνος-Κούρτη Ρία - Ένα αντίο πικρό [1964, Μπ. Μαρκάκη]
TTITLE17=Γαβαλάς Πάνος-Κολλητήρη Σοφία - Θα φύγω και θα με ζητάς [1962, Γ. Κόρ
TTITLE17=ου-Ευάγ. Σκουρτινιώτη-Ευάγ. Κόλλια]
TTITLE18=Γαβαλάς Πάνος-Κούρτη Ρία - Λαϊκό τσα-τσά [1963, Απ. Καλδάρα]
TTITLE19=Γαβαλάς Πάνος-Γκίκα Βούλα - Οι γλάροι [1958, Χ. Βασιλειάδη-Ν. Μεϊμάρη
TTITLE19=Σ. Περιστέρη]
EXTD=
EXTT0=
EXTT1=
EXTT2=
EXTT3=
EXTT4=
EXTT5=
EXTT6=
EXTT7=
EXTT8=
EXTT9=
EXTT10=
EXTT11=
EXTT12=
EXTT13=
EXTT14=
EXTT15=
EXTT16=
EXTT17=
EXTT18=
EXTT19=
PLAYORDER=
